<mxfile host="app.diagrams.net" modified="2021-12-24T07:52:56.598Z" agent="5.0 (Macintosh; Intel Mac OS X 10_15_7) AppleWebKit/605.1.15 (KHTML, like Gecko) Version/15.2 Safari/605.1.15" etag="inguTUHoF8G9dYU8eYo5" version="16.0.3" type="github">
  <diagram id="cb32SHKDerPAI4BWT1GU" name="Page-1">
    <mxGraphModel dx="2222" dy="775" grid="1" gridSize="10" guides="1" tooltips="1" connect="1" arrows="1" fold="1" page="1" pageScale="1" pageWidth="827" pageHeight="1169" math="0" shadow="0">
      <root>
        <mxCell id="0" />
        <mxCell id="1" parent="0" />
        <mxCell id="uXg0sXjpBSXNvQ2BMyhF-23" value="" style="edgeStyle=orthogonalEdgeStyle;rounded=0;orthogonalLoop=1;jettySize=auto;html=1;" edge="1" parent="1" source="uXg0sXjpBSXNvQ2BMyhF-1" target="uXg0sXjpBSXNvQ2BMyhF-2">
          <mxGeometry relative="1" as="geometry" />
        </mxCell>
        <mxCell id="uXg0sXjpBSXNvQ2BMyhF-1" value="Start" style="ellipse;whiteSpace=wrap;html=1;" vertex="1" parent="1">
          <mxGeometry x="140" y="10" width="120" height="80" as="geometry" />
        </mxCell>
        <mxCell id="uXg0sXjpBSXNvQ2BMyhF-22" value="" style="edgeStyle=orthogonalEdgeStyle;rounded=0;orthogonalLoop=1;jettySize=auto;html=1;" edge="1" parent="1" source="uXg0sXjpBSXNvQ2BMyhF-2" target="uXg0sXjpBSXNvQ2BMyhF-6">
          <mxGeometry relative="1" as="geometry" />
        </mxCell>
        <mxCell id="uXg0sXjpBSXNvQ2BMyhF-2" value="매개변수 개수 확인" style="rounded=1;whiteSpace=wrap;html=1;" vertex="1" parent="1">
          <mxGeometry x="140" y="130" width="120" height="60" as="geometry" />
        </mxCell>
        <mxCell id="uXg0sXjpBSXNvQ2BMyhF-3" value=".rt 확장자 확인" style="rounded=1;whiteSpace=wrap;html=1;" vertex="1" parent="1">
          <mxGeometry x="750" y="110" width="120" height="60" as="geometry" />
        </mxCell>
        <mxCell id="uXg0sXjpBSXNvQ2BMyhF-21" value="" style="edgeStyle=orthogonalEdgeStyle;rounded=0;orthogonalLoop=1;jettySize=auto;html=1;" edge="1" parent="1" source="uXg0sXjpBSXNvQ2BMyhF-4" target="uXg0sXjpBSXNvQ2BMyhF-6">
          <mxGeometry relative="1" as="geometry" />
        </mxCell>
        <mxCell id="uXg0sXjpBSXNvQ2BMyhF-4" value="파일 읽기" style="rounded=1;whiteSpace=wrap;html=1;" vertex="1" parent="1">
          <mxGeometry x="140" y="220" width="120" height="60" as="geometry" />
        </mxCell>
        <mxCell id="uXg0sXjpBSXNvQ2BMyhF-5" value="파일 읽기" style="rounded=1;whiteSpace=wrap;html=1;" vertex="1" parent="1">
          <mxGeometry x="750" y="10" width="120" height="60" as="geometry" />
        </mxCell>
        <mxCell id="uXg0sXjpBSXNvQ2BMyhF-20" value="" style="edgeStyle=orthogonalEdgeStyle;rounded=0;orthogonalLoop=1;jettySize=auto;html=1;" edge="1" parent="1" source="uXg0sXjpBSXNvQ2BMyhF-6" target="uXg0sXjpBSXNvQ2BMyhF-7">
          <mxGeometry relative="1" as="geometry" />
        </mxCell>
        <mxCell id="uXg0sXjpBSXNvQ2BMyhF-6" value="타입 리스트 생성" style="rounded=1;whiteSpace=wrap;html=1;" vertex="1" parent="1">
          <mxGeometry x="140" y="320" width="120" height="60" as="geometry" />
        </mxCell>
        <mxCell id="uXg0sXjpBSXNvQ2BMyhF-19" value="" style="edgeStyle=orthogonalEdgeStyle;rounded=0;orthogonalLoop=1;jettySize=auto;html=1;" edge="1" parent="1" source="uXg0sXjpBSXNvQ2BMyhF-7" target="uXg0sXjpBSXNvQ2BMyhF-10">
          <mxGeometry relative="1" as="geometry" />
        </mxCell>
        <mxCell id="uXg0sXjpBSXNvQ2BMyhF-7" value="초기화" style="rounded=1;whiteSpace=wrap;html=1;" vertex="1" parent="1">
          <mxGeometry x="140" y="410" width="120" height="60" as="geometry" />
        </mxCell>
        <mxCell id="uXg0sXjpBSXNvQ2BMyhF-18" value="" style="edgeStyle=orthogonalEdgeStyle;rounded=0;orthogonalLoop=1;jettySize=auto;html=1;" edge="1" parent="1" source="uXg0sXjpBSXNvQ2BMyhF-10" target="uXg0sXjpBSXNvQ2BMyhF-12">
          <mxGeometry relative="1" as="geometry" />
        </mxCell>
        <mxCell id="uXg0sXjpBSXNvQ2BMyhF-10" value="minilibx &amp;nbsp;연결" style="rounded=1;whiteSpace=wrap;html=1;" vertex="1" parent="1">
          <mxGeometry x="140" y="510" width="120" height="60" as="geometry" />
        </mxCell>
        <mxCell id="uXg0sXjpBSXNvQ2BMyhF-15" value="YES" style="edgeStyle=orthogonalEdgeStyle;rounded=0;orthogonalLoop=1;jettySize=auto;html=1;exitX=1;exitY=0.5;exitDx=0;exitDy=0;entryX=0;entryY=0.5;entryDx=0;entryDy=0;" edge="1" parent="1" source="uXg0sXjpBSXNvQ2BMyhF-12" target="uXg0sXjpBSXNvQ2BMyhF-14">
          <mxGeometry relative="1" as="geometry" />
        </mxCell>
        <mxCell id="uXg0sXjpBSXNvQ2BMyhF-16" value="NO" style="edgeStyle=orthogonalEdgeStyle;rounded=0;orthogonalLoop=1;jettySize=auto;html=1;exitX=0.5;exitY=1;exitDx=0;exitDy=0;" edge="1" parent="1" source="uXg0sXjpBSXNvQ2BMyhF-12" target="uXg0sXjpBSXNvQ2BMyhF-13">
          <mxGeometry relative="1" as="geometry" />
        </mxCell>
        <mxCell id="uXg0sXjpBSXNvQ2BMyhF-12" value="종료 입력" style="rhombus;whiteSpace=wrap;html=1;" vertex="1" parent="1">
          <mxGeometry x="160" y="620" width="80" height="80" as="geometry" />
        </mxCell>
        <mxCell id="uXg0sXjpBSXNvQ2BMyhF-17" style="edgeStyle=orthogonalEdgeStyle;rounded=0;orthogonalLoop=1;jettySize=auto;html=1;exitX=0;exitY=0.5;exitDx=0;exitDy=0;entryX=0;entryY=0.5;entryDx=0;entryDy=0;" edge="1" parent="1" source="uXg0sXjpBSXNvQ2BMyhF-13" target="uXg0sXjpBSXNvQ2BMyhF-12">
          <mxGeometry relative="1" as="geometry">
            <Array as="points">
              <mxPoint x="100" y="790" />
              <mxPoint x="100" y="660" />
            </Array>
          </mxGeometry>
        </mxCell>
        <mxCell id="uXg0sXjpBSXNvQ2BMyhF-13" value="draw()&amp;nbsp;" style="rounded=1;whiteSpace=wrap;html=1;" vertex="1" parent="1">
          <mxGeometry x="140" y="760" width="120" height="60" as="geometry" />
        </mxCell>
        <mxCell id="uXg0sXjpBSXNvQ2BMyhF-14" value="종료" style="ellipse;whiteSpace=wrap;html=1;" vertex="1" parent="1">
          <mxGeometry x="350" y="620" width="120" height="80" as="geometry" />
        </mxCell>
        <mxCell id="uXg0sXjpBSXNvQ2BMyhF-24" value="draw()" style="rounded=1;whiteSpace=wrap;html=1;" vertex="1" parent="1">
          <mxGeometry x="450" y="20" width="120" height="60" as="geometry" />
        </mxCell>
        <mxCell id="fEwSyKmw9O76PpUCjiSf-1" value="donpark" style="rounded=1;whiteSpace=wrap;html=1;" vertex="1" parent="1">
          <mxGeometry x="750" y="330" width="120" height="60" as="geometry" />
        </mxCell>
        <mxCell id="uXg0sXjpBSXNvQ2BMyhF-156" value="" style="group" vertex="1" connectable="0" parent="1">
          <mxGeometry x="1050" y="10" width="1010" height="760" as="geometry" />
        </mxCell>
        <mxCell id="uXg0sXjpBSXNvQ2BMyhF-29" value=".rt 리스트 해제" style="rounded=1;whiteSpace=wrap;html=1;" vertex="1" parent="uXg0sXjpBSXNvQ2BMyhF-156">
          <mxGeometry y="700" width="120" height="60" as="geometry" />
        </mxCell>
        <mxCell id="uXg0sXjpBSXNvQ2BMyhF-153" value="" style="group" vertex="1" connectable="0" parent="uXg0sXjpBSXNvQ2BMyhF-156">
          <mxGeometry width="1010" height="660" as="geometry" />
        </mxCell>
        <mxCell id="uXg0sXjpBSXNvQ2BMyhF-115" value="" style="group" vertex="1" connectable="0" parent="uXg0sXjpBSXNvQ2BMyhF-153">
          <mxGeometry x="300" width="710" height="180" as="geometry" />
        </mxCell>
        <mxCell id="uXg0sXjpBSXNvQ2BMyhF-27" value="물체 리스트 생성" style="rounded=1;whiteSpace=wrap;html=1;" vertex="1" parent="uXg0sXjpBSXNvQ2BMyhF-115">
          <mxGeometry y="10" width="120" height="60" as="geometry" />
        </mxCell>
        <mxCell id="uXg0sXjpBSXNvQ2BMyhF-30" value="type == A" style="rhombus;whiteSpace=wrap;html=1;" vertex="1" parent="uXg0sXjpBSXNvQ2BMyhF-115">
          <mxGeometry x="190" width="80" height="80" as="geometry" />
        </mxCell>
        <mxCell id="uXg0sXjpBSXNvQ2BMyhF-106" value="" style="edgeStyle=orthogonalEdgeStyle;rounded=0;orthogonalLoop=1;jettySize=auto;html=1;fontSize=14;fontColor=#0000FF;strokeWidth=1;" edge="1" parent="uXg0sXjpBSXNvQ2BMyhF-115" source="uXg0sXjpBSXNvQ2BMyhF-27" target="uXg0sXjpBSXNvQ2BMyhF-30">
          <mxGeometry relative="1" as="geometry" />
        </mxCell>
        <mxCell id="uXg0sXjpBSXNvQ2BMyhF-37" value="type == C" style="rhombus;whiteSpace=wrap;html=1;" vertex="1" parent="uXg0sXjpBSXNvQ2BMyhF-115">
          <mxGeometry x="330" width="80" height="80" as="geometry" />
        </mxCell>
        <mxCell id="uXg0sXjpBSXNvQ2BMyhF-107" value="&lt;font color=&quot;#000000&quot; style=&quot;font-size: 12px&quot;&gt;NO&lt;/font&gt;" style="edgeStyle=orthogonalEdgeStyle;rounded=0;orthogonalLoop=1;jettySize=auto;html=1;fontSize=14;fontColor=#0000FF;strokeWidth=1;" edge="1" parent="uXg0sXjpBSXNvQ2BMyhF-115" source="uXg0sXjpBSXNvQ2BMyhF-30" target="uXg0sXjpBSXNvQ2BMyhF-37">
          <mxGeometry relative="1" as="geometry" />
        </mxCell>
        <mxCell id="uXg0sXjpBSXNvQ2BMyhF-39" value="type == L" style="rhombus;whiteSpace=wrap;html=1;" vertex="1" parent="uXg0sXjpBSXNvQ2BMyhF-115">
          <mxGeometry x="470" width="80" height="80" as="geometry" />
        </mxCell>
        <mxCell id="uXg0sXjpBSXNvQ2BMyhF-108" value="&lt;font color=&quot;#000000&quot; style=&quot;font-size: 12px&quot;&gt;NO&lt;/font&gt;" style="edgeStyle=orthogonalEdgeStyle;rounded=0;orthogonalLoop=1;jettySize=auto;html=1;fontSize=14;fontColor=#0000FF;strokeWidth=1;" edge="1" parent="uXg0sXjpBSXNvQ2BMyhF-115" source="uXg0sXjpBSXNvQ2BMyhF-37" target="uXg0sXjpBSXNvQ2BMyhF-39">
          <mxGeometry relative="1" as="geometry" />
        </mxCell>
        <mxCell id="uXg0sXjpBSXNvQ2BMyhF-41" value="type == [sp, cy, pl]" style="rhombus;whiteSpace=wrap;html=1;" vertex="1" parent="uXg0sXjpBSXNvQ2BMyhF-115">
          <mxGeometry x="610" width="80" height="80" as="geometry" />
        </mxCell>
        <mxCell id="uXg0sXjpBSXNvQ2BMyhF-109" value="&lt;font color=&quot;#000000&quot; style=&quot;font-size: 12px&quot;&gt;NO&lt;/font&gt;" style="edgeStyle=orthogonalEdgeStyle;rounded=0;orthogonalLoop=1;jettySize=auto;html=1;fontSize=14;fontColor=#0000FF;strokeWidth=1;" edge="1" parent="uXg0sXjpBSXNvQ2BMyhF-115" source="uXg0sXjpBSXNvQ2BMyhF-39" target="uXg0sXjpBSXNvQ2BMyhF-41">
          <mxGeometry relative="1" as="geometry" />
        </mxCell>
        <mxCell id="uXg0sXjpBSXNvQ2BMyhF-47" value="&lt;font style=&quot;font-size: 15px&quot;&gt;ambient 생성&lt;br&gt;init_light()&lt;/font&gt;" style="rounded=1;whiteSpace=wrap;html=1;" vertex="1" parent="uXg0sXjpBSXNvQ2BMyhF-115">
          <mxGeometry x="170" y="120" width="120" height="60" as="geometry" />
        </mxCell>
        <mxCell id="uXg0sXjpBSXNvQ2BMyhF-110" value="&lt;font color=&quot;#000000&quot;&gt;&lt;span style=&quot;font-size: 12px&quot;&gt;YES&lt;/span&gt;&lt;/font&gt;" style="edgeStyle=orthogonalEdgeStyle;rounded=0;orthogonalLoop=1;jettySize=auto;html=1;fontSize=14;fontColor=#0000FF;strokeWidth=1;" edge="1" parent="uXg0sXjpBSXNvQ2BMyhF-115" source="uXg0sXjpBSXNvQ2BMyhF-30" target="uXg0sXjpBSXNvQ2BMyhF-47">
          <mxGeometry relative="1" as="geometry" />
        </mxCell>
        <mxCell id="uXg0sXjpBSXNvQ2BMyhF-49" value="&lt;font style=&quot;font-size: 15px&quot;&gt;카메라 생성&lt;br&gt;make_cam_list()&lt;br&gt;&lt;/font&gt;" style="rounded=1;whiteSpace=wrap;html=1;" vertex="1" parent="uXg0sXjpBSXNvQ2BMyhF-115">
          <mxGeometry x="310" y="120" width="120" height="60" as="geometry" />
        </mxCell>
        <mxCell id="uXg0sXjpBSXNvQ2BMyhF-111" value="&lt;font color=&quot;#000000&quot; style=&quot;font-size: 12px&quot;&gt;YES&lt;/font&gt;" style="edgeStyle=orthogonalEdgeStyle;rounded=0;orthogonalLoop=1;jettySize=auto;html=1;fontSize=14;fontColor=#0000FF;strokeWidth=1;" edge="1" parent="uXg0sXjpBSXNvQ2BMyhF-115" source="uXg0sXjpBSXNvQ2BMyhF-37" target="uXg0sXjpBSXNvQ2BMyhF-49">
          <mxGeometry relative="1" as="geometry" />
        </mxCell>
        <mxCell id="uXg0sXjpBSXNvQ2BMyhF-50" value="&lt;font style=&quot;font-size: 15px&quot;&gt;빛 생성&lt;br&gt;make_light_list()&lt;br&gt;&lt;/font&gt;" style="rounded=1;whiteSpace=wrap;html=1;" vertex="1" parent="uXg0sXjpBSXNvQ2BMyhF-115">
          <mxGeometry x="450" y="120" width="120" height="60" as="geometry" />
        </mxCell>
        <mxCell id="uXg0sXjpBSXNvQ2BMyhF-112" value="&lt;font style=&quot;font-size: 12px&quot; color=&quot;#000000&quot;&gt;&lt;font style=&quot;font-size: 12px&quot;&gt;YE&lt;/font&gt;S&lt;/font&gt;" style="edgeStyle=orthogonalEdgeStyle;rounded=0;orthogonalLoop=1;jettySize=auto;html=1;fontSize=14;fontColor=#0000FF;strokeWidth=1;" edge="1" parent="uXg0sXjpBSXNvQ2BMyhF-115" source="uXg0sXjpBSXNvQ2BMyhF-39" target="uXg0sXjpBSXNvQ2BMyhF-50">
          <mxGeometry relative="1" as="geometry" />
        </mxCell>
        <mxCell id="uXg0sXjpBSXNvQ2BMyhF-51" value="&lt;font style=&quot;font-size: 15px&quot;&gt;구, 원통, 평면 생성&lt;br&gt;add_object()&lt;br&gt;&lt;/font&gt;" style="rounded=1;whiteSpace=wrap;html=1;" vertex="1" parent="uXg0sXjpBSXNvQ2BMyhF-115">
          <mxGeometry x="590" y="120" width="120" height="60" as="geometry" />
        </mxCell>
        <mxCell id="uXg0sXjpBSXNvQ2BMyhF-113" value="&lt;font color=&quot;#000000&quot; style=&quot;font-size: 12px&quot;&gt;YES&lt;/font&gt;" style="edgeStyle=orthogonalEdgeStyle;rounded=0;orthogonalLoop=1;jettySize=auto;html=1;fontSize=14;fontColor=#0000FF;strokeWidth=1;" edge="1" parent="uXg0sXjpBSXNvQ2BMyhF-115" source="uXg0sXjpBSXNvQ2BMyhF-41" target="uXg0sXjpBSXNvQ2BMyhF-51">
          <mxGeometry relative="1" as="geometry" />
        </mxCell>
        <mxCell id="uXg0sXjpBSXNvQ2BMyhF-124" value="" style="group" vertex="1" connectable="0" parent="uXg0sXjpBSXNvQ2BMyhF-153">
          <mxGeometry x="310" y="300" width="640" height="60" as="geometry" />
        </mxCell>
        <mxCell id="uXg0sXjpBSXNvQ2BMyhF-105" value="카메라 초기화" style="rounded=1;whiteSpace=wrap;html=1;" vertex="1" parent="uXg0sXjpBSXNvQ2BMyhF-124">
          <mxGeometry width="120" height="60" as="geometry" />
        </mxCell>
        <mxCell id="uXg0sXjpBSXNvQ2BMyhF-117" value="카메라 정보 저장" style="rounded=1;whiteSpace=wrap;html=1;" vertex="1" parent="uXg0sXjpBSXNvQ2BMyhF-124">
          <mxGeometry x="180" width="120" height="60" as="geometry" />
        </mxCell>
        <mxCell id="uXg0sXjpBSXNvQ2BMyhF-120" value="" style="edgeStyle=orthogonalEdgeStyle;rounded=0;orthogonalLoop=1;jettySize=auto;html=1;fontSize=12;fontColor=#000000;strokeWidth=1;" edge="1" parent="uXg0sXjpBSXNvQ2BMyhF-124" source="uXg0sXjpBSXNvQ2BMyhF-105" target="uXg0sXjpBSXNvQ2BMyhF-117">
          <mxGeometry relative="1" as="geometry" />
        </mxCell>
        <mxCell id="uXg0sXjpBSXNvQ2BMyhF-118" value="카메라 값 계산&lt;br&gt;(u, w, v, llc.. 등)" style="rounded=1;whiteSpace=wrap;html=1;" vertex="1" parent="uXg0sXjpBSXNvQ2BMyhF-124">
          <mxGeometry x="350" width="120" height="60" as="geometry" />
        </mxCell>
        <mxCell id="uXg0sXjpBSXNvQ2BMyhF-121" value="" style="edgeStyle=orthogonalEdgeStyle;rounded=0;orthogonalLoop=1;jettySize=auto;html=1;fontSize=12;fontColor=#000000;strokeWidth=1;" edge="1" parent="uXg0sXjpBSXNvQ2BMyhF-124" source="uXg0sXjpBSXNvQ2BMyhF-117" target="uXg0sXjpBSXNvQ2BMyhF-118">
          <mxGeometry relative="1" as="geometry" />
        </mxCell>
        <mxCell id="uXg0sXjpBSXNvQ2BMyhF-119" value="add_list()" style="rounded=1;whiteSpace=wrap;html=1;" vertex="1" parent="uXg0sXjpBSXNvQ2BMyhF-124">
          <mxGeometry x="520" width="120" height="60" as="geometry" />
        </mxCell>
        <mxCell id="uXg0sXjpBSXNvQ2BMyhF-122" value="" style="edgeStyle=orthogonalEdgeStyle;rounded=0;orthogonalLoop=1;jettySize=auto;html=1;fontSize=12;fontColor=#000000;strokeWidth=1;" edge="1" parent="uXg0sXjpBSXNvQ2BMyhF-124" source="uXg0sXjpBSXNvQ2BMyhF-118" target="uXg0sXjpBSXNvQ2BMyhF-119">
          <mxGeometry relative="1" as="geometry" />
        </mxCell>
        <mxCell id="uXg0sXjpBSXNvQ2BMyhF-125" style="edgeStyle=orthogonalEdgeStyle;rounded=0;orthogonalLoop=1;jettySize=auto;html=1;fontSize=12;fontColor=#000000;strokeWidth=3;strokeColor=#FF66FF;dashed=1;fillColor=#e1d5e7;" edge="1" parent="uXg0sXjpBSXNvQ2BMyhF-153" source="uXg0sXjpBSXNvQ2BMyhF-9" target="uXg0sXjpBSXNvQ2BMyhF-105">
          <mxGeometry relative="1" as="geometry" />
        </mxCell>
        <mxCell id="uXg0sXjpBSXNvQ2BMyhF-145" value="" style="group" vertex="1" connectable="0" parent="uXg0sXjpBSXNvQ2BMyhF-153">
          <mxGeometry x="310" y="400" width="470" height="60" as="geometry" />
        </mxCell>
        <mxCell id="uXg0sXjpBSXNvQ2BMyhF-138" value="빛 초기화" style="rounded=1;whiteSpace=wrap;html=1;" vertex="1" parent="uXg0sXjpBSXNvQ2BMyhF-145">
          <mxGeometry width="120" height="60" as="geometry" />
        </mxCell>
        <mxCell id="uXg0sXjpBSXNvQ2BMyhF-139" value="빛 정보 저장" style="rounded=1;whiteSpace=wrap;html=1;" vertex="1" parent="uXg0sXjpBSXNvQ2BMyhF-145">
          <mxGeometry x="180" width="120" height="60" as="geometry" />
        </mxCell>
        <mxCell id="uXg0sXjpBSXNvQ2BMyhF-142" value="" style="edgeStyle=orthogonalEdgeStyle;rounded=0;orthogonalLoop=1;jettySize=auto;html=1;fontSize=12;fontColor=#000000;strokeWidth=1;" edge="1" parent="uXg0sXjpBSXNvQ2BMyhF-145" source="uXg0sXjpBSXNvQ2BMyhF-138" target="uXg0sXjpBSXNvQ2BMyhF-139">
          <mxGeometry relative="1" as="geometry" />
        </mxCell>
        <mxCell id="uXg0sXjpBSXNvQ2BMyhF-140" value="add_list()" style="rounded=1;whiteSpace=wrap;html=1;" vertex="1" parent="uXg0sXjpBSXNvQ2BMyhF-145">
          <mxGeometry x="350" width="120" height="60" as="geometry" />
        </mxCell>
        <mxCell id="uXg0sXjpBSXNvQ2BMyhF-143" value="" style="edgeStyle=orthogonalEdgeStyle;rounded=0;orthogonalLoop=1;jettySize=auto;html=1;fontSize=12;fontColor=#000000;strokeWidth=1;" edge="1" parent="uXg0sXjpBSXNvQ2BMyhF-145" source="uXg0sXjpBSXNvQ2BMyhF-139" target="uXg0sXjpBSXNvQ2BMyhF-140">
          <mxGeometry relative="1" as="geometry" />
        </mxCell>
        <mxCell id="uXg0sXjpBSXNvQ2BMyhF-152" value="" style="group" vertex="1" connectable="0" parent="uXg0sXjpBSXNvQ2BMyhF-153">
          <mxGeometry width="120" height="660" as="geometry" />
        </mxCell>
        <mxCell id="uXg0sXjpBSXNvQ2BMyhF-8" value="초기화" style="rounded=1;whiteSpace=wrap;html=1;" vertex="1" parent="uXg0sXjpBSXNvQ2BMyhF-152">
          <mxGeometry width="120" height="60" as="geometry" />
        </mxCell>
        <mxCell id="uXg0sXjpBSXNvQ2BMyhF-9" value="카메라 초기화" style="rounded=1;whiteSpace=wrap;html=1;" vertex="1" parent="uXg0sXjpBSXNvQ2BMyhF-152">
          <mxGeometry y="300" width="120" height="60" as="geometry" />
        </mxCell>
        <mxCell id="uXg0sXjpBSXNvQ2BMyhF-25" value="포인터 NULL 초기화" style="rounded=1;whiteSpace=wrap;html=1;" vertex="1" parent="uXg0sXjpBSXNvQ2BMyhF-152">
          <mxGeometry y="100" width="120" height="60" as="geometry" />
        </mxCell>
        <mxCell id="uXg0sXjpBSXNvQ2BMyhF-58" value="" style="edgeStyle=orthogonalEdgeStyle;rounded=0;orthogonalLoop=1;jettySize=auto;html=1;fontSize=12;" edge="1" parent="uXg0sXjpBSXNvQ2BMyhF-152" source="uXg0sXjpBSXNvQ2BMyhF-8" target="uXg0sXjpBSXNvQ2BMyhF-25">
          <mxGeometry relative="1" as="geometry" />
        </mxCell>
        <mxCell id="uXg0sXjpBSXNvQ2BMyhF-63" value="" style="edgeStyle=orthogonalEdgeStyle;rounded=0;orthogonalLoop=1;jettySize=auto;html=1;fontSize=12;strokeWidth=1;" edge="1" parent="uXg0sXjpBSXNvQ2BMyhF-152" source="uXg0sXjpBSXNvQ2BMyhF-26" target="uXg0sXjpBSXNvQ2BMyhF-9">
          <mxGeometry relative="1" as="geometry" />
        </mxCell>
        <mxCell id="uXg0sXjpBSXNvQ2BMyhF-26" value="물체 리스트 생성" style="rounded=1;whiteSpace=wrap;html=1;" vertex="1" parent="uXg0sXjpBSXNvQ2BMyhF-152">
          <mxGeometry y="200" width="120" height="60" as="geometry" />
        </mxCell>
        <mxCell id="uXg0sXjpBSXNvQ2BMyhF-59" value="" style="edgeStyle=orthogonalEdgeStyle;rounded=0;orthogonalLoop=1;jettySize=auto;html=1;fontSize=12;" edge="1" parent="uXg0sXjpBSXNvQ2BMyhF-152" source="uXg0sXjpBSXNvQ2BMyhF-25" target="uXg0sXjpBSXNvQ2BMyhF-26">
          <mxGeometry relative="1" as="geometry" />
        </mxCell>
        <mxCell id="uXg0sXjpBSXNvQ2BMyhF-28" value="빛 초기화" style="rounded=1;whiteSpace=wrap;html=1;" vertex="1" parent="uXg0sXjpBSXNvQ2BMyhF-152">
          <mxGeometry y="400" width="120" height="60" as="geometry" />
        </mxCell>
        <mxCell id="uXg0sXjpBSXNvQ2BMyhF-64" value="" style="edgeStyle=orthogonalEdgeStyle;rounded=0;orthogonalLoop=1;jettySize=auto;html=1;fontSize=12;strokeWidth=1;" edge="1" parent="uXg0sXjpBSXNvQ2BMyhF-152" source="uXg0sXjpBSXNvQ2BMyhF-9" target="uXg0sXjpBSXNvQ2BMyhF-28">
          <mxGeometry relative="1" as="geometry" />
        </mxCell>
        <mxCell id="uXg0sXjpBSXNvQ2BMyhF-146" value="메인 카메라 선택" style="rounded=1;whiteSpace=wrap;html=1;" vertex="1" parent="uXg0sXjpBSXNvQ2BMyhF-152">
          <mxGeometry y="500" width="120" height="60" as="geometry" />
        </mxCell>
        <mxCell id="uXg0sXjpBSXNvQ2BMyhF-148" value="" style="edgeStyle=orthogonalEdgeStyle;rounded=0;orthogonalLoop=1;jettySize=auto;html=1;fontSize=12;fontColor=#000000;strokeWidth=1;" edge="1" parent="uXg0sXjpBSXNvQ2BMyhF-152" source="uXg0sXjpBSXNvQ2BMyhF-28" target="uXg0sXjpBSXNvQ2BMyhF-146">
          <mxGeometry relative="1" as="geometry" />
        </mxCell>
        <mxCell id="uXg0sXjpBSXNvQ2BMyhF-147" value="메인 빛 선택" style="rounded=1;whiteSpace=wrap;html=1;" vertex="1" parent="uXg0sXjpBSXNvQ2BMyhF-152">
          <mxGeometry y="600" width="120" height="60" as="geometry" />
        </mxCell>
        <mxCell id="uXg0sXjpBSXNvQ2BMyhF-150" value="" style="edgeStyle=orthogonalEdgeStyle;rounded=0;orthogonalLoop=1;jettySize=auto;html=1;fontSize=12;fontColor=#000000;strokeWidth=1;" edge="1" parent="uXg0sXjpBSXNvQ2BMyhF-152" source="uXg0sXjpBSXNvQ2BMyhF-146" target="uXg0sXjpBSXNvQ2BMyhF-147">
          <mxGeometry relative="1" as="geometry" />
        </mxCell>
        <mxCell id="uXg0sXjpBSXNvQ2BMyhF-60" style="edgeStyle=orthogonalEdgeStyle;rounded=0;orthogonalLoop=1;jettySize=auto;html=1;entryX=0;entryY=0.5;entryDx=0;entryDy=0;fontSize=12;strokeWidth=3;dashed=1;fillColor=#f8cecc;strokeColor=#FF66FF;" edge="1" parent="uXg0sXjpBSXNvQ2BMyhF-153" source="uXg0sXjpBSXNvQ2BMyhF-26" target="uXg0sXjpBSXNvQ2BMyhF-27">
          <mxGeometry relative="1" as="geometry" />
        </mxCell>
        <mxCell id="uXg0sXjpBSXNvQ2BMyhF-144" style="edgeStyle=orthogonalEdgeStyle;rounded=0;orthogonalLoop=1;jettySize=auto;html=1;entryX=0;entryY=0.5;entryDx=0;entryDy=0;fontSize=12;fontColor=#000000;strokeWidth=3;dashed=1;fillColor=#e1d5e7;strokeColor=#FF66FF;" edge="1" parent="uXg0sXjpBSXNvQ2BMyhF-153" source="uXg0sXjpBSXNvQ2BMyhF-28" target="uXg0sXjpBSXNvQ2BMyhF-138">
          <mxGeometry relative="1" as="geometry" />
        </mxCell>
        <mxCell id="uXg0sXjpBSXNvQ2BMyhF-155" value="" style="edgeStyle=orthogonalEdgeStyle;rounded=0;orthogonalLoop=1;jettySize=auto;html=1;fontSize=12;fontColor=#000000;strokeColor=#000000;strokeWidth=1;" edge="1" parent="uXg0sXjpBSXNvQ2BMyhF-156" source="uXg0sXjpBSXNvQ2BMyhF-147" target="uXg0sXjpBSXNvQ2BMyhF-29">
          <mxGeometry relative="1" as="geometry" />
        </mxCell>
        <mxCell id="uXg0sXjpBSXNvQ2BMyhF-163" value="" style="group" vertex="1" connectable="0" parent="1">
          <mxGeometry x="-80" y="880" width="120" height="370" as="geometry" />
        </mxCell>
        <mxCell id="uXg0sXjpBSXNvQ2BMyhF-68" value="&lt;font style=&quot;font-size: 15px&quot; color=&quot;#0000ff&quot;&gt;&lt;b&gt;Sphere&lt;/b&gt;&lt;/font&gt;" style="rounded=1;whiteSpace=wrap;html=1;fontSize=12;" vertex="1" parent="uXg0sXjpBSXNvQ2BMyhF-163">
          <mxGeometry width="120" height="60" as="geometry" />
        </mxCell>
        <mxCell id="uXg0sXjpBSXNvQ2BMyhF-157" value="광선 - 구 거리&lt;br&gt;t 계산" style="rounded=1;whiteSpace=wrap;html=1;fontSize=12;fontColor=#000000;strokeColor=#000000;" vertex="1" parent="uXg0sXjpBSXNvQ2BMyhF-163">
          <mxGeometry y="110" width="120" height="60" as="geometry" />
        </mxCell>
        <mxCell id="uXg0sXjpBSXNvQ2BMyhF-160" value="" style="edgeStyle=orthogonalEdgeStyle;rounded=0;orthogonalLoop=1;jettySize=auto;html=1;fontSize=12;fontColor=#000000;strokeColor=#000000;strokeWidth=1;" edge="1" parent="uXg0sXjpBSXNvQ2BMyhF-163" source="uXg0sXjpBSXNvQ2BMyhF-68" target="uXg0sXjpBSXNvQ2BMyhF-157">
          <mxGeometry relative="1" as="geometry" />
        </mxCell>
        <mxCell id="uXg0sXjpBSXNvQ2BMyhF-158" value="광선 - 구 교차점&lt;br&gt;p 계산" style="rounded=1;whiteSpace=wrap;html=1;fontSize=12;fontColor=#000000;strokeColor=#000000;" vertex="1" parent="uXg0sXjpBSXNvQ2BMyhF-163">
          <mxGeometry y="210" width="120" height="60" as="geometry" />
        </mxCell>
        <mxCell id="uXg0sXjpBSXNvQ2BMyhF-161" value="" style="edgeStyle=orthogonalEdgeStyle;rounded=0;orthogonalLoop=1;jettySize=auto;html=1;fontSize=12;fontColor=#000000;strokeColor=#000000;strokeWidth=1;" edge="1" parent="uXg0sXjpBSXNvQ2BMyhF-163" source="uXg0sXjpBSXNvQ2BMyhF-157" target="uXg0sXjpBSXNvQ2BMyhF-158">
          <mxGeometry relative="1" as="geometry" />
        </mxCell>
        <mxCell id="uXg0sXjpBSXNvQ2BMyhF-159" value="법선백터(normal) 계산" style="rounded=1;whiteSpace=wrap;html=1;fontSize=12;fontColor=#000000;strokeColor=#000000;" vertex="1" parent="uXg0sXjpBSXNvQ2BMyhF-163">
          <mxGeometry y="310" width="120" height="60" as="geometry" />
        </mxCell>
        <mxCell id="uXg0sXjpBSXNvQ2BMyhF-162" value="" style="edgeStyle=orthogonalEdgeStyle;rounded=0;orthogonalLoop=1;jettySize=auto;html=1;fontSize=12;fontColor=#000000;strokeColor=#000000;strokeWidth=1;" edge="1" parent="uXg0sXjpBSXNvQ2BMyhF-163" source="uXg0sXjpBSXNvQ2BMyhF-158" target="uXg0sXjpBSXNvQ2BMyhF-159">
          <mxGeometry relative="1" as="geometry" />
        </mxCell>
        <mxCell id="uXg0sXjpBSXNvQ2BMyhF-177" value="" style="group" vertex="1" connectable="0" parent="1">
          <mxGeometry x="150" y="880" width="120" height="370" as="geometry" />
        </mxCell>
        <mxCell id="uXg0sXjpBSXNvQ2BMyhF-69" value="&lt;b&gt;&lt;font style=&quot;font-size: 16px&quot; color=&quot;#0000ff&quot;&gt;Plane&lt;/font&gt;&lt;/b&gt;" style="rounded=1;whiteSpace=wrap;html=1;fontSize=12;" vertex="1" parent="uXg0sXjpBSXNvQ2BMyhF-177">
          <mxGeometry width="120" height="60" as="geometry" />
        </mxCell>
        <mxCell id="uXg0sXjpBSXNvQ2BMyhF-166" value="광선 - 평면 거리&lt;br&gt;t 계산" style="rounded=1;whiteSpace=wrap;html=1;fontSize=12;fontColor=#000000;strokeColor=#000000;" vertex="1" parent="uXg0sXjpBSXNvQ2BMyhF-177">
          <mxGeometry y="110" width="120" height="60" as="geometry" />
        </mxCell>
        <mxCell id="uXg0sXjpBSXNvQ2BMyhF-169" value="" style="edgeStyle=orthogonalEdgeStyle;rounded=0;orthogonalLoop=1;jettySize=auto;html=1;fontSize=12;fontColor=#000000;strokeColor=#000000;strokeWidth=1;" edge="1" parent="uXg0sXjpBSXNvQ2BMyhF-177" source="uXg0sXjpBSXNvQ2BMyhF-69" target="uXg0sXjpBSXNvQ2BMyhF-166">
          <mxGeometry relative="1" as="geometry" />
        </mxCell>
        <mxCell id="uXg0sXjpBSXNvQ2BMyhF-167" value="광선 - 평면 교차점&lt;br&gt;p 계산" style="rounded=1;whiteSpace=wrap;html=1;fontSize=12;fontColor=#000000;strokeColor=#000000;" vertex="1" parent="uXg0sXjpBSXNvQ2BMyhF-177">
          <mxGeometry y="210" width="120" height="60" as="geometry" />
        </mxCell>
        <mxCell id="uXg0sXjpBSXNvQ2BMyhF-170" value="" style="edgeStyle=orthogonalEdgeStyle;rounded=0;orthogonalLoop=1;jettySize=auto;html=1;fontSize=12;fontColor=#000000;strokeColor=#000000;strokeWidth=1;" edge="1" parent="uXg0sXjpBSXNvQ2BMyhF-177" source="uXg0sXjpBSXNvQ2BMyhF-166" target="uXg0sXjpBSXNvQ2BMyhF-167">
          <mxGeometry relative="1" as="geometry" />
        </mxCell>
        <mxCell id="uXg0sXjpBSXNvQ2BMyhF-168" value="법선백터(normal) 계산" style="rounded=1;whiteSpace=wrap;html=1;fontSize=12;fontColor=#000000;strokeColor=#000000;" vertex="1" parent="uXg0sXjpBSXNvQ2BMyhF-177">
          <mxGeometry y="310" width="120" height="60" as="geometry" />
        </mxCell>
        <mxCell id="uXg0sXjpBSXNvQ2BMyhF-171" value="" style="edgeStyle=orthogonalEdgeStyle;rounded=0;orthogonalLoop=1;jettySize=auto;html=1;fontSize=12;fontColor=#000000;strokeColor=#000000;strokeWidth=1;" edge="1" parent="uXg0sXjpBSXNvQ2BMyhF-177" source="uXg0sXjpBSXNvQ2BMyhF-167" target="uXg0sXjpBSXNvQ2BMyhF-168">
          <mxGeometry relative="1" as="geometry" />
        </mxCell>
        <mxCell id="uXg0sXjpBSXNvQ2BMyhF-189" value="" style="group" vertex="1" connectable="0" parent="1">
          <mxGeometry x="380" y="880" width="280" height="600" as="geometry" />
        </mxCell>
        <mxCell id="uXg0sXjpBSXNvQ2BMyhF-70" value="&lt;b&gt;&lt;font style=&quot;font-size: 15px&quot; color=&quot;#0000ff&quot;&gt;Cylinder&lt;/font&gt;&lt;/b&gt;" style="rounded=1;whiteSpace=wrap;html=1;fontSize=12;" vertex="1" parent="uXg0sXjpBSXNvQ2BMyhF-189">
          <mxGeometry width="120" height="60" as="geometry" />
        </mxCell>
        <mxCell id="uXg0sXjpBSXNvQ2BMyhF-173" value="광선 - 평면 거리&lt;br&gt;t 계산" style="rounded=1;whiteSpace=wrap;html=1;fontSize=12;fontColor=#000000;strokeColor=#000000;" vertex="1" parent="uXg0sXjpBSXNvQ2BMyhF-189">
          <mxGeometry y="100" width="120" height="60" as="geometry" />
        </mxCell>
        <mxCell id="uXg0sXjpBSXNvQ2BMyhF-175" value="광선 - 평면 교차점&lt;br&gt;p 계산" style="rounded=1;whiteSpace=wrap;html=1;fontSize=12;fontColor=#000000;strokeColor=#000000;" vertex="1" parent="uXg0sXjpBSXNvQ2BMyhF-189">
          <mxGeometry y="200" width="120" height="60" as="geometry" />
        </mxCell>
        <mxCell id="uXg0sXjpBSXNvQ2BMyhF-172" value="" style="edgeStyle=orthogonalEdgeStyle;rounded=0;orthogonalLoop=1;jettySize=auto;html=1;fontSize=12;fontColor=#000000;strokeColor=#000000;strokeWidth=1;" edge="1" parent="uXg0sXjpBSXNvQ2BMyhF-189" source="uXg0sXjpBSXNvQ2BMyhF-173" target="uXg0sXjpBSXNvQ2BMyhF-175">
          <mxGeometry relative="1" as="geometry" />
        </mxCell>
        <mxCell id="uXg0sXjpBSXNvQ2BMyhF-176" value="법선백터(normal) 계산" style="rounded=1;whiteSpace=wrap;html=1;fontSize=12;fontColor=#000000;strokeColor=#000000;" vertex="1" parent="uXg0sXjpBSXNvQ2BMyhF-189">
          <mxGeometry y="300" width="120" height="60" as="geometry" />
        </mxCell>
        <mxCell id="uXg0sXjpBSXNvQ2BMyhF-174" value="" style="edgeStyle=orthogonalEdgeStyle;rounded=0;orthogonalLoop=1;jettySize=auto;html=1;fontSize=12;fontColor=#000000;strokeColor=#000000;strokeWidth=1;" edge="1" parent="uXg0sXjpBSXNvQ2BMyhF-189" source="uXg0sXjpBSXNvQ2BMyhF-175" target="uXg0sXjpBSXNvQ2BMyhF-176">
          <mxGeometry relative="1" as="geometry" />
        </mxCell>
        <mxCell id="uXg0sXjpBSXNvQ2BMyhF-179" value="p &amp;nbsp; 가 원통 &lt;br&gt;옆면인가?" style="rhombus;whiteSpace=wrap;html=1;fontSize=12;fontColor=#000000;strokeColor=#000000;" vertex="1" parent="uXg0sXjpBSXNvQ2BMyhF-189">
          <mxGeometry x="5" y="390" width="110" height="110" as="geometry" />
        </mxCell>
        <mxCell id="uXg0sXjpBSXNvQ2BMyhF-180" value="" style="edgeStyle=orthogonalEdgeStyle;rounded=0;orthogonalLoop=1;jettySize=auto;html=1;fontSize=12;fontColor=#000000;strokeColor=#000000;strokeWidth=1;" edge="1" parent="uXg0sXjpBSXNvQ2BMyhF-189" source="uXg0sXjpBSXNvQ2BMyhF-176" target="uXg0sXjpBSXNvQ2BMyhF-179">
          <mxGeometry relative="1" as="geometry" />
        </mxCell>
        <mxCell id="uXg0sXjpBSXNvQ2BMyhF-181" value="TRUE" style="ellipse;whiteSpace=wrap;html=1;strokeColor=#000000;fontColor=#000000;" vertex="1" parent="uXg0sXjpBSXNvQ2BMyhF-189">
          <mxGeometry y="540" width="120" height="60" as="geometry" />
        </mxCell>
        <mxCell id="uXg0sXjpBSXNvQ2BMyhF-182" value="YES" style="edgeStyle=orthogonalEdgeStyle;rounded=0;orthogonalLoop=1;jettySize=auto;html=1;fontSize=12;fontColor=#000000;strokeColor=#000000;strokeWidth=1;" edge="1" parent="uXg0sXjpBSXNvQ2BMyhF-189" source="uXg0sXjpBSXNvQ2BMyhF-179" target="uXg0sXjpBSXNvQ2BMyhF-181">
          <mxGeometry relative="1" as="geometry" />
        </mxCell>
        <mxCell id="uXg0sXjpBSXNvQ2BMyhF-185" value="밑면, 윗면 계산" style="rounded=1;whiteSpace=wrap;html=1;fontSize=12;fontColor=#000000;strokeColor=#000000;" vertex="1" parent="uXg0sXjpBSXNvQ2BMyhF-189">
          <mxGeometry x="160" y="415" width="120" height="60" as="geometry" />
        </mxCell>
        <mxCell id="uXg0sXjpBSXNvQ2BMyhF-186" value="NO" style="edgeStyle=orthogonalEdgeStyle;rounded=0;orthogonalLoop=1;jettySize=auto;html=1;fontSize=12;fontColor=#000000;strokeColor=#000000;strokeWidth=1;" edge="1" parent="uXg0sXjpBSXNvQ2BMyhF-189" source="uXg0sXjpBSXNvQ2BMyhF-179" target="uXg0sXjpBSXNvQ2BMyhF-185">
          <mxGeometry relative="1" as="geometry" />
        </mxCell>
      </root>
    </mxGraphModel>
  </diagram>
</mxfile>
